<?xml version="1.0" encoding="UTF-8" standalone="no"?>
<svg
   id="master-artboard"
   viewBox="0 0 135.99999 135.99999"
   version="1.1"
   x="0px"
   y="0px"
   width="136"
   height="136"
   sodipodi:docname="logo.svg"
   inkscape:version="1.1 (c68e22c387, 2021-05-23)"
   inkscape:export-filename="C:\Users\benru\OneDrive - The University of Melbourne\AUSMURI\Website\catch-muri.github.io\assets\logo.png"
   inkscape:export-xdpi="96"
   inkscape:export-ydpi="96"
   xmlns:inkscape="http://www.inkscape.org/namespaces/inkscape"
   xmlns:sodipodi="http://sodipodi.sourceforge.net/DTD/sodipodi-0.dtd"
   xmlns="http://www.w3.org/2000/svg"
   xmlns:svg="http://www.w3.org/2000/svg">
  <sodipodi:namedview
     id="namedview35"
     pagecolor="#ffffff"
     bordercolor="#666666"
     borderopacity="1.0"
     inkscape:pageshadow="2"
     inkscape:pageopacity="0.0"
     inkscape:pagecheckerboard="0"
     showgrid="false"
     fit-margin-top="0"
     fit-margin-left="0"
     fit-margin-right="0"
     fit-margin-bottom="0"
     inkscape:zoom="0.8255102"
     inkscape:cx="-185.94561"
     inkscape:cy="70.865266"
     inkscape:window-width="1920"
     inkscape:window-height="1017"
     inkscape:window-x="-8"
     inkscape:window-y="-8"
     inkscape:window-maximized="1"
     inkscape:current-layer="master-artboard" />
  <defs
     id="defs24">
    <style
       id="ee-google-fonts">@import url(https://fonts.googleapis.com/css?family=Allura:400);</style>
  </defs>
  <g
     transform="matrix(1.3542969,0,0,1.3542969,-808.51525,-452.33516)"
     id="g30">
    <g
       id="g-1">
      <g
         id="g-2">
        <path
           class="st0"
           d="M 597.5,348.6 647,334 l 49.5,14.6 c 0.3,2.4 0.5,4.9 0.5,7.3 0,12.2 -5.7,66.1 -50,78.1 -44.3,-12 -50,-65.8 -50,-78.1 0,-2.4 0.2,-4.9 0.5,-7.3 z"
           style="fill:#333333"
           id="path26" />
      </g>
    </g>
  </g>
  <path
     d="m 49.494049,43.49825 c 0,-2.483256 -1.306181,-3.724887 -3.91856,-3.724887 -2.263755,0 -5.201057,1.063029 -8.811892,3.189072 -3.610843,2.130349 -7.322817,5.377518 -11.135922,9.741508 -3.813111,4.368295 -6.472827,8.945319 -7.97913,13.73108 -0.619749,1.906556 -0.92961,3.668932 -0.92961,5.287139 0,1.618207 0.464805,3.025537 1.394413,4.22197 1.639717,2.130347 4.320951,3.217036 8.043689,3.260077 0.266834,0 0.509988,0 0.729481,0 4.12298,0 8.579506,-1.05225 13.369557,-3.156795 4.785754,-2.108824 8.620396,-5.201054 11.503892,-9.276703 0.219502,-0.309859 0.45189,-0.376566 0.697205,-0.200119 0.241013,0.176454 0.361518,0.33139 0.361518,0.464805 0,0.133413 -0.04305,0.243159 -0.129115,0.329228 -3.279445,4.480187 -7.3142,7.850026 -12.104265,10.109495 -4.785753,2.259449 -9.416578,3.389188 -13.892471,3.389188 -4.699672,0 -8.245957,-1.329858 -10.638834,-3.989576 -1.553641,-1.725793 -2.330468,-3.985253 -2.330468,-6.778387 0,-4.699677 1.773143,-9.754421 5.319413,-15.164207 4.833101,-7.355092 10.684039,-12.452876 17.552801,-15.293331 2.659705,-1.063029 5.209674,-1.594546 7.649889,-1.594546 3.012618,0 5.162335,0.71012 6.449156,2.130355 0.843527,0.972642 1.265304,2.102378 1.265304,3.389199 0,2.440216 -1.286827,4.944988 -3.860464,7.514327 -2.569329,2.569323 -5.416253,4.620058 -8.540767,6.15219 -3.128812,1.527824 -5.844471,2.403627 -8.146983,2.627426 -0.929594,0.08607 -1.372882,-0.159234 -1.329848,-0.735934 0.04305,-0.796189 0.596069,-1.239483 1.659091,-1.329863 3.546277,-0.309867 6.804212,-1.383647 9.77379,-3.221341 2.973897,-1.842005 5.257012,-4.29083 6.849403,-7.346482 0.753146,-1.200747 1.129727,-2.442371 1.129727,-3.724888 z m 12.571744,28.127083 c -3.989559,7.4885 -7.75748,11.232749 -11.303758,11.232749 -2.263769,0 -3.395652,-1.151236 -3.395652,-3.453744 0,-1.372899 0.533659,-2.902869 1.600993,-4.589936 1.816169,-2.836165 4.641581,-6.326496 8.476203,-10.470991 3.834635,-4.144509 7.081805,-7.436862 9.741515,-9.877078 l 2.524142,-8.573049 c -2.216417,2.083016 -5.097784,3.300961 -8.644049,3.653868 -0.443294,0.04305 -0.675689,-0.09038 -0.697221,-0.400246 -0.02149,-0.309859 0.167859,-0.507845 0.5681,-0.593912 l 0.264683,-0.07101 c 1.906563,-0.176447 3.866904,-1.172762 5.881044,-2.988946 2.018467,-1.820473 3.537684,-3.903483 4.557661,-6.249021 0.176466,-0.576701 0.951143,-0.854294 2.324024,-0.832776 1.377194,0.02149 2.042138,0.299115 1.994784,0.832776 l -4.583466,11.368329 c 6.025216,-5.09994 10.346181,-7.716608 12.962839,-7.850028 0.309882,0 0.619746,0 0.929619,0 3.503238,0 5.919794,1.153407 7.249652,3.46021 1.153384,1.949596 1.730088,4.232726 1.730088,6.849394 0,3.899186 -1.196432,9.48544 -3.589315,16.758764 -0.40024,1.282504 -0.568087,1.934524 -0.503532,1.956049 0.06884,0.02589 0.191511,-0.105448 0.367958,-0.393796 0.176466,-0.288348 0.454066,-0.72088 0.832781,-1.297586 0.374438,-0.576693 1.271754,-2.039961 2.691988,-4.389803 5.09561,-8.555831 10.281626,-15.693584 15.558016,-21.413252 1.7301,-1.816176 3.4602,-2.724267 5.1903,-2.724267 1.01568,0 1.79035,0.355063 2.32401,1.065178 0.53367,0.710114 0.8005,1.484792 0.8005,2.324021 0,0.843526 -0.18937,2.018451 -0.56808,3.524754 -0.37443,1.506316 -1.51493,4.654504 -3.42149,9.444562 -2.34982,5.848776 -3.52475,10.636691 -3.52475,14.363729 0,2.879187 0.79834,4.318789 2.39502,4.318789 1.1491,0 2.67694,-0.731628 4.58349,-2.194912 2.92654,-2.435908 5.27639,-4.850307 7.04953,-7.243184 0.22378,-0.314165 0.43469,-0.380879 0.63265,-0.200121 0.19796,0.176447 0.29696,0.320625 0.29696,0.432522 0,0.107605 -0.043,0.206587 -0.12913,0.296967 -0.84353,1.329847 -2.17338,2.926526 -3.98955,4.79005 -2.96959,3.146037 -5.3646,5.007404 -7.1851,5.584101 -0.88657,0.309872 -1.74948,0.464805 -2.5887,0.464805 -2.92653,-0.04305 -4.38981,-2.149715 -4.38981,-6.320035 0,-2.169083 0.26469,-4.273611 0.79404,-6.31358 0.53366,-2.039976 0.96619,-3.612992 1.29758,-4.719047 0.33139,-1.110367 0.76393,-2.407947 1.29758,-3.89274 0.53366,-1.484785 0.97695,-2.625273 1.32986,-3.421467 1.15338,-2.88351 1.86351,-4.680312 2.13033,-5.390439 0.26255,-0.710114 0.3938,-1.31909 0.3938,-1.826935 0,-0.507845 -0.13125,-0.862895 -0.3938,-1.06517 -0.26682,-0.197971 -0.62187,-0.29696 -1.06516,-0.29696 -0.4433,0 -1.12974,0.398097 -2.05935,1.194293 -3.41716,2.926536 -7.26469,7.537991 -11.542623,13.83436 -4.273607,6.292063 -7.275461,11.234899 -9.005558,14.828522 -0.357218,0.753153 -0.71227,1.129729 -1.065192,1.129729 -0.352904,0 -0.729462,-0.322769 -1.12973,-0.968336 -0.40024,-0.64126 -0.600369,-1.106066 -0.600369,-1.394404 0,-0.288348 0.02368,-0.47771 0.07105,-0.568096 1.149088,-2.922245 1.979712,-6.046748 2.491852,-9.373545 0.507855,-3.322486 0.761782,-6.048896 0.761782,-8.179251 0,-7.488499 -1.618226,-11.232747 -4.85463,-11.232747 -3.012612,0 -8.48697,3.634494 -16.42307,10.903518 -0.395949,1.153402 -1.258831,3.236412 -2.588707,6.249015 -1.820461,3.946532 -3.438679,7.249649 -4.854609,9.909364 m -11.103637,8.973281 c 2.74579,0 6.113459,-3.834626 10.10303,-11.503881 2.216417,-4.256398 3.813098,-7.714446 4.790053,-10.374162 -2.349837,2.216429 -4.94284,4.93208 -7.779005,8.146975 -2.840469,3.214902 -4.85892,5.620693 -6.055355,7.217376 -1.54935,2.083002 -2.324028,3.690442 -2.324028,4.822338 0,1.127572 0.421776,1.691354 1.265305,1.691354 z"
     style="color:#333333;white-space:pre;fill:#ccccff;stroke-width:0.64556"
     id="path32" />
</svg>
